<?xml version="1.0" encoding="UTF-8"?>
<svg id="_Слой_1" data-name="Слой 1" xmlns="http://www.w3.org/2000/svg" xmlns:xlink="http://www.w3.org/1999/xlink" viewBox="0 0 890.17 890.16">
  <defs>
    <style>
      .cls-1 {
        fill: #fff;
      }

      .cls-2 {
        fill: url(#_Безымянный_градиент_2-9);
      }

      .cls-3 {
        fill: none;
        stroke: #000;
        stroke-linecap: round;
        stroke-linejoin: round;
        stroke-width: .5px;
      }

      .cls-4 {
        fill: url(#_Безымянный_градиент_2);
      }

      .cls-5 {
        fill: #02c6ed;
      }

      .cls-6 {
        fill: url(#_Безымянный_градиент_2-5);
      }

      .cls-7 {
        fill: url(#_Безымянный_градиент_2-7);
      }

      .cls-8 {
        fill: url(#_Безымянный_градиент_2-3);
      }

      .cls-9 {
        fill: url(#_Безымянный_градиент_2-4);
      }

      .cls-10 {
        fill: url(#_Безымянный_градиент_2-2);
      }

      .cls-11 {
        fill: url(#_Безымянный_градиент_2-8);
      }

      .cls-12 {
        fill: url(#_Безымянный_градиент_2-6);
      }
    </style>
    <linearGradient id="_Безымянный_градиент_2" data-name="Безымянный градиент 2" x1=".25" y1="445.08" x2="889.92" y2="445.08" gradientUnits="userSpaceOnUse">
      <stop offset="0" stop-color="#02edc8"/>
      <stop offset="1" stop-color="#02c6ed"/>
    </linearGradient>
    <linearGradient id="_Безымянный_градиент_2-2" data-name="Безымянный градиент 2" y1="47.84" y2="47.84" xlink:href="#_Безымянный_градиент_2"/>
    <linearGradient id="_Безымянный_градиент_2-3" data-name="Безымянный градиент 2" y1="842.33" y2="842.33" xlink:href="#_Безымянный_градиент_2"/>
    <linearGradient id="_Безымянный_градиент_2-4" data-name="Безымянный градиент 2" y1="43.01" y2="43.01" xlink:href="#_Безымянный_градиент_2"/>
    <linearGradient id="_Безымянный_градиент_2-5" data-name="Безымянный градиент 2" y1="847.15" y2="847.15" xlink:href="#_Безымянный_градиент_2"/>
    <linearGradient id="_Безымянный_градиент_2-6" data-name="Безымянный градиент 2" y1="38.43" x2="889.92" y2="38.43" xlink:href="#_Безымянный_градиент_2"/>
    <linearGradient id="_Безымянный_градиент_2-7" data-name="Безымянный градиент 2" y1="851.74" x2="889.92" y2="851.74" xlink:href="#_Безымянный_градиент_2"/>
    <linearGradient id="_Безымянный_градиент_2-8" data-name="Безымянный градиент 2" y1="24.56" x2="889.92" y2="24.56" xlink:href="#_Безымянный_градиент_2"/>
    <linearGradient id="_Безымянный_градиент_2-9" data-name="Безымянный градиент 2" y1="865.6" x2="889.92" y2="865.6" xlink:href="#_Безымянный_градиент_2"/>
  </defs>
  <g>
    <path class="cls-4" d="m889.92,70.25v749.66c0,6.64-.93,13.07-2.66,19.16,1.72-6.09,2.65-12.52,2.65-19.16V70.25c0-6.64-.93-13.07-2.65-19.16,1.73,6.09,2.66,12.52,2.66,19.16Z"/>
    <path class="cls-10" d="m885.06,44.58c.84,2.12,1.57,4.29,2.2,6.51-.63-2.22-1.37-4.39-2.2-6.51Z"/>
    <path class="cls-8" d="m887.26,839.07c-.63,2.22-1.36,4.39-2.2,6.51.83-2.12,1.57-4.29,2.2-6.51Z"/>
    <path class="cls-9" d="m883.73,41.44c.47,1.04.92,2.08,1.33,3.14-.42-1.06-.86-2.1-1.33-3.14Z"/>
    <path class="cls-6" d="m885.06,845.58c-.41,1.06-.86,2.1-1.33,3.14.47-1.04.91-2.08,1.33-3.14Z"/>
    <path class="cls-12" d="m880.64,35.41c1.13,1.95,2.16,3.96,3.09,6.03-.94-2.07-1.97-4.08-3.09-6.03Z"/>
    <path class="cls-7" d="m883.73,848.72c-.93,2.07-1.96,4.08-3.09,6.03,1.12-1.95,2.15-3.96,3.09-6.03Z"/>
    <path class="cls-11" d="m869.41,20.75c2.38,2.37,4.59,4.92,6.6,7.62-2.02-2.7-4.22-5.24-6.6-7.62Z"/>
    <path class="cls-2" d="m876.01,861.79c-2.01,2.7-4.22,5.25-6.6,7.62,2.38-2.38,4.58-4.92,6.6-7.62Z"/>
    <path class="cls-5" d="m328.03,516.91c339.11.01,506.85,260.56,506.85,260.56,6.69-33.8,10.2-68.74,10.2-104.5,0-295.62-221.43-429.31-517.05-429.31V112.69L45.08,372.82l282.95,260.13v-116.04ZM889.91,70.25v749.66c0,6.64-.93,13.07-2.65,19.16-.63,2.22-1.37,4.39-2.2,6.51-.42,1.06-.86,2.1-1.33,3.14-.94,2.07-1.97,4.08-3.09,6.03-1.4,2.45-2.95,4.8-4.63,7.04-2.02,2.7-4.22,5.24-6.6,7.62-12.67,12.67-30.17,20.5-49.49,20.5H70.25c-38.66,0-70-31.34-70-70V70.25C.25,31.59,31.59.25,70.25.25h749.67c19.32,0,36.82,7.83,49.49,20.5,2.38,2.38,4.58,4.92,6.6,7.62,1.68,2.24,3.23,4.59,4.63,7.04,1.12,1.95,2.15,3.96,3.09,6.03.47,1.04.91,2.08,1.33,3.14.83,2.12,1.57,4.29,2.2,6.51,1.72,6.09,2.65,12.52,2.65,19.16Z"/>
    <path class="cls-1" d="m328.03,243.66c295.62,0,517.05,133.69,517.05,429.31,0,35.76-3.51,70.7-10.2,104.5,0,0-167.74-260.55-506.85-260.56v116.04L45.08,372.82,328.03,112.69v130.97Z"/>
  </g>
  <path class="cls-3" d="m845.08,672.97c0-295.62-221.43-429.31-517.05-429.31V112.69L45.08,372.82l282.95,260.13v-116.04c339.11.01,506.85,260.56,506.85,260.56,6.69-33.8,10.2-68.74,10.2-104.5Z"/>
</svg>